<svg id="グループ_35045" data-name="グループ 35045" xmlns="http://www.w3.org/2000/svg" width="146.287" height="36.746" viewBox="0 0 146.287 36.746">
  <g id="グループ_29260" data-name="グループ 29260" transform="translate(0 0)">
    <path id="パス_37594" data-name="パス 37594" d="M82.889,8.59a4.3,4.3,0,0,0,3.036-7.333,4.294,4.294,0,1,0-6.073,6.073A4.265,4.265,0,0,0,82.889,8.59m-3.626-4.3A3.627,3.627,0,1,1,80.325,6.86a3.6,3.6,0,0,1-1.063-2.565" transform="translate(-62.937 0)" fill="#414448"/>
    <path id="パス_37595" data-name="パス 37595" d="M88.512,12.814a2.9,2.9,0,1,0-2.9-2.9,2.895,2.895,0,0,0,2.9,2.9" transform="translate(-68.56 -5.622)" fill="#414448"/>
    <path id="パス_37596" data-name="パス 37596" d="M37.716,44.391a2.143,2.143,0,0,0-.313.024c-.2-.3-.413-.646-.747-1.064a2.187,2.187,0,1,0-.164-3.823,2.187,2.187,0,0,0-3.905-1.883,2.188,2.188,0,0,0-4.372.073A2.187,2.187,0,0,0,26.1,36.071c-.045,0-.089,0-.133,0a18.716,18.716,0,0,1,5.369-1.087,2.19,2.19,0,1,0-.066-.534c0,.025,0,.049,0,.073-.67.011-1.3.054-1.885.122a2.187,2.187,0,1,0-3.173-2.041,2.187,2.187,0,1,0-1.786,3.448h.057c-.1.052-.2.1-.293.155a24.6,24.6,0,0,0-3.329,2.1c-.421.423-.573.446-.573-.014V33.807a.335.335,0,0,0-.669,0V38.3c0,.46-.152.437-.573.014a24.629,24.629,0,0,0-3.328-2.1c-.092-.051-.19-.1-.293-.155h.056a2.187,2.187,0,1,0-1.787-3.448,2.187,2.187,0,1,0-3.172,2.041c-.588-.068-1.216-.111-1.886-.122,0-.024,0-.048,0-.073a2.186,2.186,0,1,0-.066.534,18.707,18.707,0,0,1,5.368,1.087c-.043,0-.088,0-.133,0a2.187,2.187,0,0,0-2.119,1.646,2.187,2.187,0,0,0-4.371-.073,2.187,2.187,0,0,0-3.906,1.883,2.187,2.187,0,1,0-.164,3.823c-.333.418-.548.767-.747,1.064a2.135,2.135,0,0,0-.313-.024,2.185,2.185,0,1,0,2.136,1.721,2.186,2.186,0,0,0,3.6-1.667A2.143,2.143,0,0,0,7.9,44.13a2.188,2.188,0,0,0,3.513-.2,2.187,2.187,0,1,0,3.964-1.418,5.628,5.628,0,0,1,1.1,1.25,6.361,6.361,0,0,1,1.38,4.487c.028,2.038-.139,6.747-2.169,8.746-.259.257-.89.1-.595-.359a9.34,9.34,0,0,0,1.808-5.067c-.148-2.371-1.53-4.712-4.872-4.712A4.819,4.819,0,0,0,8.6,48.267a4.608,4.608,0,0,0-1.382,3.159,3.9,3.9,0,0,0,4.152,4.236,4.084,4.084,0,0,0,3.956-4.118,2.85,2.85,0,0,0-.863-2.044,3.43,3.43,0,0,0-2.428-1.028,3.13,3.13,0,0,0-2.238.891,3.231,3.231,0,0,0-.908,2.316,2.264,2.264,0,0,0,.661,1.7,2.519,2.519,0,0,0,1.748.67,2.377,2.377,0,0,0,2.269-2.031,1.56,1.56,0,0,0-.6-1.622,1.445,1.445,0,0,0-1.567-.058,1.741,1.741,0,0,0-.692,1.8.334.334,0,1,0,.664-.081,1.1,1.1,0,0,1,.376-1.148.792.792,0,0,1,.843.037.879.879,0,0,1,.322.954,1.7,1.7,0,0,1-1.633,1.48,1.878,1.878,0,0,1-1.259-.482,1.62,1.62,0,0,1-.46-1.217,2.577,2.577,0,0,1,.712-1.843,2.47,2.47,0,0,1,1.767-.694,2.752,2.752,0,0,1,1.951.829,2.192,2.192,0,0,1,.673,1.562,3.419,3.419,0,0,1-3.288,3.463,3.243,3.243,0,0,1-3.484-3.568,3.927,3.927,0,0,1,1.186-2.685,4.157,4.157,0,0,1,2.962-1.217,3.945,3.945,0,0,1,4.205,4.1A7.77,7.77,0,0,1,15.1,55.292c-.9,1.567-3.74,3.725-4.023,5-.049.221.015.511.308.219a11.607,11.607,0,0,1,1.675-1.21A18.114,18.114,0,0,0,15.8,57.531c.691-.649,1.132-1.454,1.341-1.37s.262.469.137.847-.488,1.854-.614,2.146.089.424.423.07a11.736,11.736,0,0,0,1.477-2.087c.09-.255.36-.4.59-.07s.256,2.015.466,2.391c.094.171.212.24.331.223.119.017.238-.053.332-.223.209-.376.235-2.057.465-2.391s.5-.184.59.07a11.808,11.808,0,0,0,1.477,2.087c.334.354.548.224.423-.07s-.489-1.77-.614-2.146-.072-.764.137-.847.651.721,1.341,1.37a18.153,18.153,0,0,0,2.74,1.776,11.64,11.64,0,0,1,1.675,1.21c.293.292.358,0,.308-.219-.283-1.28-3.127-3.437-4.023-5a7.786,7.786,0,0,1-1.139-3.672,3.946,3.946,0,0,1,4.206-4.1,4.159,4.159,0,0,1,2.963,1.217,3.927,3.927,0,0,1,1.186,2.685,3.243,3.243,0,0,1-3.484,3.568,3.419,3.419,0,0,1-3.289-3.463,2.2,2.2,0,0,1,.673-1.562,2.751,2.751,0,0,1,1.951-.829,2.47,2.47,0,0,1,1.766.694,2.575,2.575,0,0,1,.712,1.843,1.622,1.622,0,0,1-.459,1.217,1.879,1.879,0,0,1-1.259.482A1.7,1.7,0,0,1,27,51.9a.881.881,0,0,1,.323-.954.791.791,0,0,1,.843-.037,1.1,1.1,0,0,1,.375,1.148.334.334,0,1,0,.664.081,1.74,1.74,0,0,0-.692-1.8,1.444,1.444,0,0,0-1.566.058,1.56,1.56,0,0,0-.6,1.622,2.377,2.377,0,0,0,2.268,2.031,2.517,2.517,0,0,0,1.748-.67,2.262,2.262,0,0,0,.662-1.7,3.232,3.232,0,0,0-.908-2.316,3.128,3.128,0,0,0-2.238-.891A3.431,3.431,0,0,0,25.441,49.5a2.854,2.854,0,0,0-.864,2.044,4.085,4.085,0,0,0,3.957,4.118,3.9,3.9,0,0,0,4.152-4.236A4.612,4.612,0,0,0,31.3,48.267a4.822,4.822,0,0,0-3.435-1.412c-3.342,0-4.724,2.341-4.872,4.712a9.329,9.329,0,0,0,1.808,5.067c.295.455-.336.616-.6.359-2.03-2-2.2-6.708-2.169-8.746a6.359,6.359,0,0,1,1.381-4.487,5.587,5.587,0,0,1,1.1-1.25,2.187,2.187,0,1,0,3.964,1.418,2.188,2.188,0,0,0,3.513.2,2.143,2.143,0,0,0-.022.315,2.186,2.186,0,0,0,3.6,1.667,2.187,2.187,0,1,0,2.137-1.721M3.6,44.912a2.162,2.162,0,0,0-.518-.327,6.584,6.584,0,0,1,.565-.782,2.151,2.151,0,0,0-.1.642,2.215,2.215,0,0,0,.05.467m23.007-10.95a2.185,2.185,0,0,0,1.442.9,15.076,15.076,0,0,0-2.092.568,2.181,2.181,0,0,0,.65-1.464m-14.757.9a2.185,2.185,0,0,0,1.442-.9,2.182,2.182,0,0,0,.65,1.464,15.1,15.1,0,0,0-2.092-.568M4.3,42.2a2.2,2.2,0,0,0,.047-1.494A2.193,2.193,0,0,0,6,40.97,6.783,6.783,0,0,0,4.3,42.2m3.1.528a2.2,2.2,0,0,0,.023.314A2.19,2.19,0,0,0,4.977,42.4a6.536,6.536,0,0,1,3.737-1.67A2.188,2.188,0,0,0,7.4,42.732m6.2-1.143a2.184,2.184,0,0,0-1.831.992A2.187,2.187,0,0,0,10.3,40.665c.267,0,.518.012.75.012a7.04,7.04,0,0,1,3.123.99,2.188,2.188,0,0,0-.578-.078m5.548,4.619c-.809-1.387-2.894-4.245-4.74-5.232a10.313,10.313,0,0,0-7.674-.334,2.183,2.183,0,0,0,.94-1.685A2.187,2.187,0,0,0,11.62,38.3a2.187,2.187,0,1,0,3.72-1.6c.666.341,1.251.7,1.822,1.053a4.2,4.2,0,0,1,1.1,3.14c-.053,1.206-.038,2.558-.094,3.114A9.145,9.145,0,0,1,19.612,45.8c.294.364-.131.97-.466.413m8.99-3.628a2.186,2.186,0,0,0-2.409-.914,7.04,7.04,0,0,1,3.124-.99c.231,0,.482-.008.749-.012a2.189,2.189,0,0,0-1.464,1.915m-2.639-1.6c-1.846.988-3.932,3.846-4.741,5.232-.334.557-.759-.05-.465-.413a9.1,9.1,0,0,1,1.444-1.789c-.055-.556-.041-1.908-.093-3.114a4.2,4.2,0,0,1,1.1-3.14c.571-.352,1.156-.712,1.822-1.053a2.187,2.187,0,1,0,3.719,1.6,2.187,2.187,0,0,0,3.948.656,2.186,2.186,0,0,0,.94,1.685,10.309,10.309,0,0,0-7.673.334m8.667,1.282a2.183,2.183,0,0,0-1.682.788,2.184,2.184,0,0,0-1.292-2.321,6.532,6.532,0,0,1,3.736,1.67,2.164,2.164,0,0,0-.761-.137M33.9,40.97a2.193,2.193,0,0,0,1.653-.26A2.181,2.181,0,0,0,35.6,42.2a6.8,6.8,0,0,0-1.7-1.234m2.4,3.941a2.152,2.152,0,0,0,.051-.467,2.19,2.19,0,0,0-.1-.642,6.77,6.77,0,0,1,.565.782,2.147,2.147,0,0,0-.519.327" transform="translate(0 -24.433)" fill="#414448"/>
    <path id="パス_37597" data-name="パス 37597" d="M505.657,90.627c-5.611,0-11.28,2.861-12.179,9.822-.332,2.565,2.584,6.119,5.557,6.289s7.185-11.4,7.522-12.631.45-1.349.729-1.516c2.134.114,6,2.247,5.837,5.334a9.129,9.129,0,0,1-6.566,8.027l1.74,1.346a10.358,10.358,0,0,0,7.241-9.145c.055-3.6-3.2-7.525-9.88-7.525m-5.5,12.461c-.843,1.292-1.627,1.683-3.478-.45s-.508-4.66,1.289-6.9,5.389-3.255,6.23-2.976c.279,2.247-3.2,9.038-4.042,10.33" transform="translate(-395.148 -72.573)" fill="#414448"/>
    <path id="パス_37598" data-name="パス 37598" d="M628.749,77.946c.222.056.167.45-.115.729l-.05,2.647c0,.09.011.371.025.627.008.137.192.243.413.235,3.522-.095,9.773-.424,9.773-.424.224.031.31.14.31.338v1.376c0,.167-.054.364-.253.364-2.038,0-6.344.035-9.265.049a.377.377,0,0,0-.343.476,11.87,11.87,0,0,0,1.692,2.563c2.636,3.143,5.107,5.334,8.308,6.4.167.11.28.223.085.28s-1.8,1.265-1.909,1.347-.2.028-.31,0a27.215,27.215,0,0,1-7.748-6.847c-.289-.385-.615-.56-.672,0s.057,10.33.057,10.33a.188.188,0,0,1-.225.2l-2.079,0c-.307-.031-.222-.061-.222-.2.167-2.246.226-9.715.167-10.106s-.507-.45-.787-.166-6.34,6.792-7.97,7.184c-.112.028-.115.06-.224,0a14.767,14.767,0,0,0-1.346-.927c-.448-.167-.113-.31-.113-.31,3.984-2.523,8.644-6.736,9.652-9.655.056-.2-.032-.546-.167-.545-3.277.046-8.5.152-8.811.152-.252,0-.283-.281-.283-.506v-1.2c0-.255.2-.451.337-.423.9,0,6.047.2,9.284.263a.381.381,0,0,0,.389-.383c.006-1.221-.085-3.355-.129-3.949a.275.275,0,0,1,.365-.252c.2.055,2.161.336,2.161.336" transform="translate(-493.147 -62.138)" fill="#414448"/>
    <path id="パス_37599" data-name="パス 37599" d="M372.164,84.4l.842-.8c.17-.084.252-.253,1.1.21a24.218,24.218,0,0,1,2.4,1.516c.253.231.337.5.125.716l-.842.885c-.126.124-.546.083-.883-.17a29.331,29.331,0,0,0-2.525-1.685c-.337-.127-.463-.462-.211-.675" transform="translate(-297.916 -66.864)" fill="#414448"/>
    <path id="パス_37600" data-name="パス 37600" d="M363.642,114.682l.842-.8c.167-.084.253-.25,1.094.212a25.146,25.146,0,0,1,2.2,1.293c.254.233.337.5.125.715l-.841.887c-.123.126-.546.082-.884-.17a23.5,23.5,0,0,0-2.328-1.462c-.337-.123-.463-.461-.211-.672" transform="translate(-291.092 -91.114)" fill="#414448"/>
    <path id="パス_37601" data-name="パス 37601" d="M369.949,142.313a38.161,38.161,0,0,1-3.958,5.808c-.168.167-.378.464.085.8l1.18.8c.293.253.589.211.926-.419s3.009-5.293,3.2-5.6c.252-.407-.126-.885-.126-.885l-.659-.618a.422.422,0,0,0-.646.114" transform="translate(-292.923 -113.789)" fill="#414448"/>
    <path id="パス_37602" data-name="パス 37602" d="M412.7,88.37c-.491.036-3.407.087-6.637.132a.382.382,0,0,1-.389-.376l-.035-2.229a.47.47,0,0,1,.373-.452,12.361,12.361,0,0,0,3.209-.934,6.287,6.287,0,0,0,2.413-.115c.225-.279-.113-.435-.45-.659s-1.261-1.515-1.963-1.08c-1.964,1.067-8.7,2.135-11,1.854-.447-.058-.9,0-.671.338l.9,1.288c.735-.055,2.644-.11,4.731-.312a.363.363,0,0,1,.4.343c.027.5.044,1.2.052,1.984a.383.383,0,0,1-.381.384c-3.326.04-6.351.061-6.8.043-.293.084-.293.084-.293.377l.044,1.434c0,.126.123.3.461.252.822-.107,3.6-.2,6.593-.255a.374.374,0,0,1,.381.374c-.006.965-.023,1.829-.044,2.36a.4.4,0,0,1-.395.385h-4.443c-.2.016-.337.1-.323.266v8.913c.016.126.043.18.378.18h1.4c.139-.055.167-.082.195-.18,0-1.449.2-1.672.423-1.672H409c.364,0,.479.448.419,1.446.06.18.085.239.254.239h1.4c.137-.031.167-.059.195-.239V93.772c-.058-.194-.113-.28-.279-.266H406.14a.387.387,0,0,1-.389-.382l-.036-2.392a.383.383,0,0,1,.379-.388c3.061-.036,5.745-.027,6.061.047.3,0,.548.126.589-.041Zm-3.96,6.778a.382.382,0,0,1,.381.382v3.193a.381.381,0,0,1-.381.38h-7.827a.382.382,0,0,1-.381-.38V95.531a.383.383,0,0,1,.381-.382Z" transform="translate(-317.236 -66.12)" fill="#414448"/>
    <path id="パス_37603" data-name="パス 37603" d="M254.761,101.539c-1.629.143-5.112.192-8.861.2a.422.422,0,0,1-.418-.387c-.053-.743-.095-2.015-.131-3.513a.367.367,0,0,1,.375-.375c2.21.009,4.26.071,6.509.2.252.044.378.044.5-.126V95.769c0-.334-.379-.334-.675-.334-1.582.138-3.922.192-6.382.2a.394.394,0,0,1-.384-.387c-.019-1.087-.033-2.2-.047-3.259a.376.376,0,0,1,.379-.378c2.578,0,4.926.061,7.361.2.252.044.379.044.5-.126V89.918c0-.338-.378-.338-.672-.338-1.705.152-4.417.2-7.221.2a.382.382,0,0,1-.379-.378c-.014-1.684-.022-2.847-.022-2.847a2.826,2.826,0,0,1,.226-1.236c.249-.366.364-.785-.056-.841l-2.3-.338c-.2.029-.2.2-.17.618.022.243.063,2.153.094,4.624a.375.375,0,0,1-.379.382c-1.431-.018-2.794-.044-3.965-.073-.206-.006-.28-.151-.162-.328.472-.715.9-1.4,1.243-2.009.337-.168.463-.545,0-.757s-1.514-.464-1.852-.632a.418.418,0,0,0-.589.253,13.467,13.467,0,0,1-5.348,7.326c-.323.255-.1.563.128.644s1.261.644,1.542.787.422-.028.562-.167a29.078,29.078,0,0,0,2.577-3c2.164-.077,4.1-.132,5.886-.165a.378.378,0,0,1,.381.381c.006,1.063.008,2.159.006,3.217a.383.383,0,0,1-.387.381c-2.465-.03-4.78-.09-6.275-.143-.419-.04-.5.127-.545.335v1.477a.453.453,0,0,0,.5.377c2.408-.085,4.451-.148,6.3-.18a.374.374,0,0,1,.376.384c-.027,1.467-.068,2.7-.139,3.48a.431.431,0,0,1-.423.379c-3.943-.025-7.638-.088-9.231-.145-.419-.042-.508.126-.548.338v1.472c0,.252.337.42.505.379,6.99-.253,16.8-.3,21.767,0,.252.041.379.041.5-.127v-1.769c0-.335-.379-.335-.672-.335" transform="translate(-185.605 -67.375)" fill="#414448"/>
    <path id="パス_37604" data-name="パス 37604" d="M569.3,28.637l.159.021a2.332,2.332,0,0,0,.3.018c.177,0,.352-.016.523-.032l.309-.027.008-.19a5.209,5.209,0,0,0-.029-1.029l-.029-.172-1.051-.05-.223.149-.008.1a4.411,4.411,0,0,0,.015,1.05Z" transform="translate(-455.836 -21.762)" fill="#414448"/>
    <path id="パス_37605" data-name="パス 37605" d="M433.242,38.447a2.679,2.679,0,0,0-3.2-.909,2.823,2.823,0,0,0-1.683,2.16,3.183,3.183,0,0,0,1.326,3.295,3.884,3.884,0,0,0,1.841.429,4.522,4.522,0,0,0,1.708-.329l.1-.039.029-.1c.014-.046.029-.093.045-.139a1.414,1.414,0,0,0,.1-.611l-.035-.314-.28.146a3.048,3.048,0,0,1-2.817.136,1.951,1.951,0,0,1-.819-1.5c0-.043,0-.091,0-.143a1.433,1.433,0,0,1,.015-.371l3.962-.026.15-.2,0-.079a2.874,2.874,0,0,0-.434-1.4m-3.408.71a.668.668,0,0,0,.046-.12,1.3,1.3,0,0,1,1.134-.7,1.349,1.349,0,0,1,1.288.609l.048.079c.026.042.047.077.063.108-.6.029-1.21.028-1.8.024l-.518,0h-.257" transform="translate(-342.998 -29.9)" fill="#414448"/>
    <path id="パス_37606" data-name="パス 37606" d="M343.346,23.074l-.043-.162h-.168c-.768,0-1.532,0-2.3,0-1.326,0-2.7-.008-4.078.025l-.179,0-.216,1.321.346-.126a5.027,5.027,0,0,1,1.8-.155c.266.008.539.017.806.008l0,.035-.013,7.07-.128.676.2.048a2.519,2.519,0,0,0,.57.052c.155,0,.312-.007.461-.014l.457-.017-.148-.591-.026-7.024a.83.83,0,0,0,0-.21c0-.008,0-.017,0-.026.277.011.563,0,.839-.006a4.832,4.832,0,0,1,1.661.13l.3.1-.015-.318a4.03,4.03,0,0,0-.135-.825" transform="translate(-269.357 -18.346)" fill="#414448"/>
    <path id="パス_37607" data-name="パス 37607" d="M400.928,38.448a2.681,2.681,0,0,0-3.2-.909,2.821,2.821,0,0,0-1.682,2.16,3.182,3.182,0,0,0,1.326,3.295,3.884,3.884,0,0,0,1.841.429,4.524,4.524,0,0,0,1.708-.329l.1-.039.029-.1c.014-.046.029-.093.045-.139a1.416,1.416,0,0,0,.1-.611l-.035-.314-.28.146a3.047,3.047,0,0,1-2.817.136,1.948,1.948,0,0,1-.819-1.5c0-.043,0-.091,0-.143a1.428,1.428,0,0,1,.015-.371l3.962-.026.15-.2,0-.079a2.875,2.875,0,0,0-.434-1.4m-3.408.71a.63.63,0,0,0,.046-.12,1.3,1.3,0,0,1,1.134-.7,1.35,1.35,0,0,1,1.288.609l.048.079c.026.042.047.077.063.108-.6.029-1.208.027-1.8.024l-.517,0h-.258" transform="translate(-317.121 -29.901)" fill="#414448"/>
    <path id="パス_37608" data-name="パス 37608" d="M379.319,38.071l0-.028-.064-.321-.168-.008a2.576,2.576,0,0,0-.87.1,1.265,1.265,0,0,0-.582.369.8.8,0,0,0-.044-.223l-.058-.154-1.623.146.328.327a.635.635,0,0,1,.167.3c0,.475.014.953.025,1.43.022,1.018.045,2.071,0,3.069a.478.478,0,0,1-.032.082.411.411,0,0,0,.051.514l.079.071.1-.019a2.086,2.086,0,0,1,.448-.011,1.946,1.946,0,0,0,.662-.046l.277-.082-.274-.425a9.884,9.884,0,0,1-.091-1.945c.007-.363.013-.707,0-1.024a1.621,1.621,0,0,1,.3-.975c.18-.17.393-.337.577-.314l.088.012.071-.053c.04-.031.157-.009.243.007.053.01.1.019.147.022l.186.016.042-.181a1.282,1.282,0,0,0,.014-.433,1.5,1.5,0,0,1-.009-.217" transform="translate(-301.024 -30.198)" fill="#414448"/>
    <path id="パス_37609" data-name="パス 37609" d="M479.983,37.554a3.047,3.047,0,0,0-3.948,3.623A3.129,3.129,0,0,0,478,43.3a3.055,3.055,0,0,0,1.005.171,3.15,3.15,0,0,0,2.388-1.116,3.075,3.075,0,0,0,.332-3.314,3.177,3.177,0,0,0-1.745-1.482m.594,3.91a1.918,1.918,0,0,1-1.236.955,1.741,1.741,0,0,1-1.794-.781,2.376,2.376,0,0,1-.105-2.274,1.782,1.782,0,0,1,1.5-.948,1.444,1.444,0,0,1,.224.018,2.021,2.021,0,0,1,1.343.831,2.358,2.358,0,0,1,.071,2.2" transform="translate(-381.139 -29.942)" fill="#414448"/>
    <path id="パス_37610" data-name="パス 37610" d="M585.234,23.7l.228.059.038-.232a1.281,1.281,0,0,0-.021-.6l-.042-.125-.131-.02a2.519,2.519,0,0,0-1.327.09l-.006,0c-1.166.51-1.16,1.8-1.154,2.835v.066a1.7,1.7,0,0,1-.184,0,1.329,1.329,0,0,0-.416.04l-.154.046v.161c0,.031,0,.066-.007.1a.572.572,0,0,0,.152.541l.049.04.062.007a1.952,1.952,0,0,0,.282,0,1.6,1.6,0,0,1,.214,0c-.005.445,0,.9,0,1.359a27.9,27.9,0,0,1-.086,3.142l-.008.008a.343.343,0,0,0-.113.236v.167l.162.042a2.99,2.99,0,0,0,.794.053c.146,0,.294,0,.435,0l.116.008.208-.277-.1-.13a.737.737,0,0,1-.146-.265l-.026-4.273.012-.057c.192-.017.389-.015.6-.016s.424,0,.637-.017l.183-.015.022-.257a.83.83,0,0,0-.063-.527l-.062-.1-1.3-.013c0-.137-.008-.28-.015-.424a2.422,2.422,0,0,1,.194-1.409,1.028,1.028,0,0,1,.969-.25" transform="translate(-466.097 -18.207)" fill="#414448"/>
    <path id="パス_37611" data-name="パス 37611" d="M607.793,40.129l.15-.2,0-.079a2.878,2.878,0,0,0-.434-1.4,2.681,2.681,0,0,0-3.2-.909,2.823,2.823,0,0,0-1.683,2.16,3.183,3.183,0,0,0,1.327,3.295,3.884,3.884,0,0,0,1.841.429,4.523,4.523,0,0,0,1.708-.329l.1-.039.029-.1c.014-.046.029-.093.045-.139a1.412,1.412,0,0,0,.1-.611l-.034-.314-.28.146a3.048,3.048,0,0,1-2.817.136,1.95,1.95,0,0,1-.819-1.5c0-.043,0-.091,0-.143a1.434,1.434,0,0,1,.015-.371Zm-3.7-.97a.678.678,0,0,0,.046-.12,1.3,1.3,0,0,1,1.134-.7,1.352,1.352,0,0,1,1.288.609l.048.079c.026.042.047.077.063.108-.6.029-1.211.027-1.8.024l-.518,0H604.1" transform="translate(-482.545 -29.901)" fill="#414448"/>
    <path id="パス_37612" data-name="パス 37612" d="M570.08,43.463l-.013-5.226-.146-.195h-.108a4.172,4.172,0,0,0-.465.034,3.377,3.377,0,0,1-.379.029h-.051l-.046.023a.29.29,0,0,0-.165.2.371.371,0,0,0,.118.316c.01.012.021.024.03.036l.025,3.527c0,.111,0,.225.007.339a2.619,2.619,0,0,1-.116,1.108l-.135.3h.333c.094,0,.2.006.312.012s.258.015.39.015a2.243,2.243,0,0,0,.285-.016l.086-.031c.089-.056.216-.189.059-.458-.01-.016-.02-.029-.022-.019" transform="translate(-455.354 -30.463)" fill="#414448"/>
    <path id="パス_37613" data-name="パス 37613" d="M514.475,23.7l.228.058.039-.231a1.269,1.269,0,0,0-.02-.6l-.042-.125-.132-.02a2.519,2.519,0,0,0-1.327.09l-.006,0c-1.167.51-1.159,1.745-1.154,2.835v.066a1.7,1.7,0,0,1-.184,0,1.312,1.312,0,0,0-.416.04l-.154.046v.161c0,.031,0,.066-.007.1a.572.572,0,0,0,.152.541l.049.04.062.007a1.953,1.953,0,0,0,.282,0,1.441,1.441,0,0,1,.214,0c-.005.446,0,.9,0,1.364a27.713,27.713,0,0,1-.086,3.137l-.008.008a.34.34,0,0,0-.113.236v.167l.162.042a2.988,2.988,0,0,0,.794.053c.146,0,.293,0,.435,0l.117.008.207-.276-.1-.13a.74.74,0,0,1-.146-.265l-.025-4.273.013-.057c.191-.017.392-.015.6-.016s.425,0,.638-.017l.182-.015.023-.255a.829.829,0,0,0-.063-.529l-.062-.1-1.3-.013c0-.137-.008-.279-.015-.424a2.426,2.426,0,0,1,.194-1.409,1.028,1.028,0,0,1,.969-.25" transform="translate(-409.434 -18.207)" fill="#414448"/>
    <path id="パス_37614" data-name="パス 37614" d="M552.938,31.116l.01-8.011-.068-.4-.176-.007a4.8,4.8,0,0,0-1.06.08l-.158.03-.016.16a.43.43,0,0,0,.139.344l.013,7.1-.02.668a.4.4,0,0,1-.037.049.382.382,0,0,0-.084.443l.06.111,1.222.012a.319.319,0,0,0,.266-.171.361.361,0,0,0-.062-.351c-.01-.015-.023-.037-.032-.054" transform="translate(-441.585 -18.17)" fill="#414448"/>
  </g>
</svg>
