<svg xmlns="http://www.w3.org/2000/svg" width="16" height="16" viewBox="0 0 16 16"><defs><style>.a{fill:none;}</style></defs><g transform="translate(-438 -233)"><path d="M13.4,1.831H2.621A1.956,1.956,0,0,0,.668,3.784v6.807a1.956,1.956,0,0,0,1.953,1.953H7.115v1.387H4.928a.489.489,0,0,0-.487.487v.227a.489.489,0,0,0,.487.487h6.18a.489.489,0,0,0,.487-.487v-.227a.489.489,0,0,0-.487-.487H8.921V12.544h4.493a1.956,1.956,0,0,0,1.953-1.953V3.784a1.956,1.956,0,0,0-1.953-1.953Zm.787,8.76a.788.788,0,0,1-.787.787H2.621a.788.788,0,0,1-.787-.787V3.784A.788.788,0,0,1,2.621,3H13.4a.788.788,0,0,1,.787.787Z" transform="translate(437.982 232.519)"/><rect class="a" width="16" height="16" transform="translate(438 233)"/></g></svg>