<?xml version="1.0" encoding="UTF-8"?>
<svg xmlns="http://www.w3.org/2000/svg" version="1.1" viewBox="0 0 162 49">
  <defs>
    <style>
      .cls-1 {
        font-family: NotoSansJP-Regular-90ms-RKSJ-H, 'Noto Sans JP';
        font-size: 12px;
      }

      .cls-2 {
        fill: #d90000;
        fill-rule: evenodd;
      }
    </style>
  </defs>
  <!-- Generator: Adobe Illustrator 28.7.1, SVG Export Plug-In . SVG Version: 1.2.0 Build 142)  -->
  <g>
    <g id="_レイヤー_1" data-name="レイヤー_1">
      <g>
        <path class="cls-2" d="M0,48.6v-24.3h7.1l5.5,8.7c1.7,2.8,3.2,5.8,4.4,8.7h.1c-.4-3.4-.4-6.4-.4-9.8v-7.6h5.3v24.3h-6.2l-5.7-9.4c-1.7-2.8-3.4-5.9-4.8-9h-.1c.2,3.5.2,6.8.2,10.5v7.9H0Z"/>
        <path class="cls-2" d="M40.6,38.4h-10.1v5.5h11.2v4.6h-17v-24.3h16.4v4.6h-10.7v4.9h10.1v4.6Z"/>
        <path class="cls-2" d="M55.3,44.6c-4.2,0-6.9-3.5-6.9-8s2.6-8.2,6.9-8.2,6.9,3.7,6.9,8.1-2.6,8.1-6.9,8.1h0ZM55.1,49c7.9,0,13.2-5.2,13.2-12.8s-4.9-12.4-12.9-12.4-13.1,5.3-13.1,12.8,4.9,12.3,12.7,12.3h0Z"/>
        <path class="cls-2" d="M76.2,24.3h3.3v15.8c0,6.8-3.5,8.9-7.9,8.9s-3-.3-3.9-.7l.5-2.6c.7.3,1.8.6,3.1.6,3.1,0,4.9-1.4,4.9-6.5v-15.5Z"/>
        <path class="cls-2" d="M87.9,38.3l2.8-7.3c.5-1.4.9-2.7,1.3-4h0c.4,1.3.8,2.5,1.3,4.1l2.8,7.3h-8.2ZM96.9,40.8l2.9,7.7h3.6l-9.3-24.3h-4l-9.2,24.3h3.4l2.8-7.7h9.7Z"/>
        <path class="cls-2" d="M108.2,26.9c.6-.1,1.8-.3,3.4-.3,3.6,0,6.3,1.4,6.3,4.8s-2.5,5.2-6.6,5.2-2.3,0-3.1-.3v-9.4ZM104.9,48.6h3.3v-9.7c.8.2,1.9.3,3,.3,3.4,0,6.2-.9,8-2.6,1.3-1.3,2-3.1,2-5.3s-.9-3.9-2.2-5.1c-1.5-1.3-3.9-2.1-7.3-2.1s-5.1.2-6.7.5v24Z"/>
        <path class="cls-2" d="M124.8,38.3l2.8-7.3c.5-1.4.9-2.7,1.3-4h0c.4,1.3.8,2.5,1.3,4.1l2.8,7.3h-8.2ZM133.8,40.8l2.9,7.7h3.6l-9.3-24.3h-4l-9.2,24.3h3.4l2.8-7.7h9.7Z"/>
        <path class="cls-2" d="M141.8,48.6v-24.3h3.7l8.9,12.6c2,2.9,3.5,5.3,4.7,7.7h0c-.3-3.1-.3-6-.3-9.6v-10.7h3.1v24.3h-3.4l-8.7-12.5c-1.9-2.8-3.7-5.6-5.1-8.1h-.1c.2,3.1.2,5.9.2,9.6v11h-3.1Z"/>
      </g>
      <text class="cls-1" transform="translate(1.7 15)"><tspan x="0" y="0">株式会社ネオジャパン</tspan></text>
    </g>
  </g>
</svg>